<svg t="1678692107260" class="icon" viewBox="0 0 1024 1024" version="1.1" xmlns="http://www.w3.org/2000/svg" p-id="6091" width="200" height="200"><path d="M828.5 725.6c-30.4 15.6-77.1 33.5-122.3 41.3-24.9 4.7-49.1-11.7-55.3-36.6-27.3-112.9-35-325.5-31.9-423.7 0.8-20.2 14-38.2 33.5-44.4 53.7-17.9 108.3-41.3 126.9-77.9 12.5-24.1-6.2-32.7-32.7-34.3-35.8-1.6-74 5.5-107.5 17.1-77.9 27.3-151.9 28.8-218.1 12.5-55.3-14-109-16.4-162.8-1.6-31.2 8.6-91.9 50.6-86.4 90.3 3.1 22.6 21 4.7 61.5-14.8 38.2-18.7 73.2-5.5 95.8 2.3 14.8 5.5 25.7 17.1 29.6 31.9 17.9 62.3 28.8 144.9 35.8 221.2 4.7 47.5 2.3 95.8 0 143.3-0.8 14.8-3.1 38.9-6.2 62.3-2.3 21-17.9 37.4-38.9 42.1-36.6 7.8-69.3 19.5-88.8 31.9-28.8 18.7-48.3 41.3-51.4 55.3-3.1 14.8-1.6 27.3 17.9 18.7 47.5-21 101.2-28.8 158.9-28 51.4 0 95 9.3 144.9 21.8 44.4 10.9 91.9 20.2 137.8 17.1 27.3-1.6 90.3-14 137.1-54.5 48.3-39.6 63.9-114.3 22.6-93.3zM509.2 756c-24.9-3.9-42.8-25.7-41.3-50.6 0.8-15.6 1.6-31.9 1.6-42.1 0.8-53.7-2.3-107.5-9.3-161.2-6.2-50.6-14.8-101.2-27.3-150.3-5.5-23.4-12.5-45.9-19.5-68.5-1.6-4.7-3.1-8.6-3.9-13.2 9.3 2.3 17.9 3.9 27.3 6.2 23.4 6.2 46.7 8.6 70.9 9.3 27.3 0.8 48.3 24.1 46.7 51.4-3.9 62.3-9.3 160.4-10.1 194.7-0.8 52.2 7.8 110.6 21 165.1 7.8 33.5-20.2 63.9-53.7 59.2h-2.4z" fill="#ffffff" p-id="6092"></path></svg>